<?xml version="1.0" standalone="no"?><!DOCTYPE svg PUBLIC "-//W3C//DTD SVG 1.1//EN" "http://www.w3.org/Graphics/SVG/1.1/DTD/svg11.dtd"><svg width="100%" height="100%" viewBox="0 0 30 30" version="1.1" xmlns="http://www.w3.org/2000/svg" xmlns:xlink="http://www.w3.org/1999/xlink" xml:space="preserve" style="fill-rule:evenodd;clip-rule:evenodd;stroke-linejoin:round;stroke-miterlimit:1.41421;"><path d="M0.823,15.194c-1.137,0.614 -1.09,1.514 0.103,2.003l3.528,1.439c1.192,0.485 2.995,0.221 4.007,-0.595l15.325,-12.459c1.008,-0.819 1.116,-0.698 0.24,0.269l-12.115,13.369c-0.878,0.964 -0.619,2.145 0.576,2.622l0.414,0.166c1.195,0.476 3.146,1.279 4.333,1.776l3.914,1.645c1.188,0.497 2.16,0.91 2.163,0.917c0.001,0.008 0.006,0.031 0.012,0.033c0.006,0.002 0.286,-1.04 0.623,-2.315l5.965,-22.607c0.337,-1.276 -0.316,-1.818 -1.452,-1.204l-27.636,14.941Z" style="fill:#fff;fill-rule:nonzero;"/><path d="M10.508,29.991c-0.07,0.216 2.414,-3.707 2.414,-3.707c0.701,-1.105 0.304,-2.423 -0.884,-2.923l-2.707,-1.144c-1.188,-0.5 -1.756,0.087 -1.264,1.311c0,0.001 2.513,6.243 2.441,6.463Z" style="fill:#fff;fill-rule:nonzero;"/></svg>