<?xml version="1.0" standalone="no"?><!DOCTYPE svg PUBLIC "-//W3C//DTD SVG 1.1//EN" "http://www.w3.org/Graphics/SVG/1.1/DTD/svg11.dtd"><svg width="100%" height="100%" viewBox="0 0 30 30" version="1.1" xmlns="http://www.w3.org/2000/svg" xmlns:xlink="http://www.w3.org/1999/xlink" xml:space="preserve" style="fill-rule:evenodd;clip-rule:evenodd;stroke-linejoin:round;stroke-miterlimit:1.41421;"><path d="M15,0c-8.284,0 -15,6.716 -15,15c0,8.284 6.716,15 15,15c8.284,0 15,-6.716 15,-15c0,-8.284 -6.716,-15 -15,-15ZM15.069,27.557c-6.918,0 -12.526,-5.608 -12.526,-12.526c0,-6.918 5.608,-12.526 12.526,-12.526c6.918,0 12.526,5.607 12.526,12.526c0,6.918 -5.607,12.526 -12.526,12.526Z" style="fill:#fff;fill-rule:nonzero;"/><path d="M18.414,8.488l-6.828,0c-0.704,0 -1.273,0.56 -1.273,1.25l0,11.619c0.003,0.069 0.068,0.273 0.791,-0.022l3.479,-1.418c0.024,-0.009 0.442,-0.168 0.856,0.002l0.001,0l3.677,1.505c0.216,0.08 0.57,0.177 0.57,-0.065l0,-5.325l0,-1.018l0,-5.278c0,-0.69 -0.57,-1.25 -1.273,-1.25ZM17.793,14.746l0,3.761c0,0.133 -0.151,0.11 -0.277,0.068l-2.178,-0.892c-0.294,-0.12 -0.635,-0.003 -0.641,-0.001l-1.893,0.772c-0.528,0.215 -0.573,0.063 -0.575,0.014l0,-3.118l0,-0.604l0,-3.134c0,-0.409 0.339,-0.742 0.755,-0.742l4.054,0c0.418,0 0.756,0.332 0.756,0.742l0,3.134l-0.001,0Z" style="fill:#fff;fill-rule:nonzero;"/></svg>