<?xml version="1.0" standalone="no"?><!DOCTYPE svg PUBLIC "-//W3C//DTD SVG 1.1//EN" "http://www.w3.org/Graphics/SVG/1.1/DTD/svg11.dtd"><svg width="100%" height="100%" viewBox="0 0 30 30" version="1.1" xmlns="http://www.w3.org/2000/svg" xmlns:xlink="http://www.w3.org/1999/xlink" xml:space="preserve" style="fill-rule:evenodd;clip-rule:evenodd;stroke-linejoin:round;stroke-miterlimit:1.41421;"><path id="note-list" d="M21.596,30.101l-18.913,0c-1.441,0 -2.609,-1.176 -2.609,-2.61l0,-24.781c0,-1.441 1.176,-2.609 2.61,-2.609l24.78,0c1.442,0 2.61,1.166 2.61,2.601l0,18.268l-7.826,9.131l-0.652,0ZM1.378,7.927l0,19.567c0,0.73 0.589,1.302 1.314,1.302l18.252,0l0,-6.514c0,-1.46 1.166,-2.616 2.606,-2.616l5.22,0l0,-11.739l-27.392,0ZM1.378,6.622l0,-3.914c0,-0.72 0.572,-1.303 1.303,-1.303l24.786,0c0.719,0 1.303,0.587 1.303,1.313l0,3.904l-27.392,0ZM22.248,28.144l0,-5.858c0,-0.727 0.588,-1.316 1.3,-1.316l4.83,0l-6.13,7.174ZM10.509,17.057l0,1.304l9.13,0l0,-1.304l-9.13,0ZM3.987,15.753l0,3.913l3.913,0l0,-3.913l-3.913,0ZM5.291,17.057l0,1.304l1.305,0l0,-1.304l-1.305,0ZM10.509,11.84l0,1.304l15.652,0l0,-1.304l-15.652,0ZM3.987,10.535l0,3.913l3.913,0l0,-3.913l-3.913,0ZM5.291,11.84l0,1.304l1.305,0l0,-1.304l-1.305,0ZM10.509,22.275l0,1.304l7.826,0l0,-1.304l-7.826,0ZM3.987,20.97l0,3.913l3.913,0l0,-3.913l-3.913,0ZM5.291,22.275l0,1.304l1.305,0l0,-1.304l-1.305,0Z" style="fill:#fff;"/></svg>