<?xml version="1.0" standalone="no"?><!DOCTYPE svg PUBLIC "-//W3C//DTD SVG 1.1//EN" "http://www.w3.org/Graphics/SVG/1.1/DTD/svg11.dtd"><svg width="100%" height="100%" viewBox="0 0 30 30" version="1.1" xmlns="http://www.w3.org/2000/svg" xmlns:xlink="http://www.w3.org/1999/xlink" xml:space="preserve" style="fill-rule:evenodd;clip-rule:evenodd;stroke-linejoin:round;stroke-miterlimit:1.41421;"><path id="common_calendar_month_glyph" d="M18.56,2.872l-7.143,0l0,2.674c0,0.896 -0.96,1.612 -2.144,1.612l-1.426,0c-1.188,0 -2.144,-0.722 -2.144,-1.612l0,-2.674l-4.816,0c-0.496,0 -0.898,0.416 -0.898,0.927l0,25.29c0,0.511 0.401,0.926 0.897,0.926l28.205,0c0.496,0 0.898,-0.415 0.898,-0.926l0,-25.29c0,-0.512 -0.403,-0.927 -0.899,-0.927l-4.816,0l0,2.674c0,0.896 -0.96,1.612 -2.144,1.612l-1.426,0c-1.188,0 -2.144,-0.722 -2.144,-1.612l0,-2.674ZM1.417,24.301l0,3.751c0,0.295 0.275,0.534 0.614,0.534l3.672,0l0,-4.285l-4.286,0ZM7.131,24.301l0,4.285l4.286,0l0,-4.285l-4.286,0ZM12.846,24.301l0,4.285l4.285,0l0,-4.285l-4.285,0ZM18.56,24.301l0,4.285l4.286,0l0,-4.285l-4.286,0ZM24.274,24.301l0,4.285l3.672,0c0.339,0 0.614,-0.239 0.614,-0.534l0,-3.751l-4.286,0ZM1.417,18.586l0,4.286l4.286,0l0,-4.286l-4.286,0ZM7.131,18.586l0,4.286l4.286,0l0,-4.286l-4.286,0ZM18.56,18.586l0,4.286l4.286,0l0,-4.286l-4.286,0ZM24.274,18.586l0,4.286l4.286,0l0,-4.286l-4.286,0ZM1.417,12.872l0,4.286l4.286,0l0,-4.286l-4.286,0ZM7.131,12.872l0,4.286l4.286,0l0,-4.286l-4.286,0ZM12.846,12.872l0,4.286l4.285,0l0,-4.286l-4.285,0ZM18.56,12.872l0,4.286l4.286,0l0,-4.286l-4.286,0ZM24.274,12.872l0,4.286l4.286,0l0,-4.286l-4.286,0ZM8.203,0.015c-0.592,0 -1.072,0.477 -1.072,1.075l0,3.565c0,0.593 0.479,1.074 1.072,1.074l0.714,0c0.592,0 1.072,-0.477 1.072,-1.074l0,-3.565c0,-0.594 -0.479,-1.075 -1.072,-1.075l-0.714,0ZM21.417,0.015c-0.789,0 -1.428,0.639 -1.428,1.427l0,2.86c0,0.788 0.641,1.427 1.428,1.427c0.789,0 1.429,-0.639 1.429,-1.427l0,-2.86c0,-0.788 -0.641,-1.427 -1.429,-1.427Z" style="fill:#fff;"/></svg>