<?xml version="1.0" standalone="no"?><!DOCTYPE svg PUBLIC "-//W3C//DTD SVG 1.1//EN" "http://www.w3.org/Graphics/SVG/1.1/DTD/svg11.dtd"><svg width="100%" height="100%" viewBox="0 0 180 180" version="1.1" xmlns="http://www.w3.org/2000/svg" xmlns:xlink="http://www.w3.org/1999/xlink" xml:space="preserve" style="fill-rule:evenodd;clip-rule:evenodd;stroke-linejoin:round;stroke-miterlimit:1.41421;"><g id="common_calendar_month_outline_stroke"><path id="path-1" d="M110.746,25.714l0.044,-8.571l-42.062,0l-0.044,8.571l42.062,0ZM34.033,25.714l0.044,-8.571l-28.687,0c-2.977,0 -5.39,2.493 -5.39,5.559l0,151.739c0,3.07 2.408,5.559 5.387,5.559l169.226,0c2.975,0 5.387,-2.493 5.387,-5.559l0,-151.739c0,-3.07 -2.418,-5.559 -5.39,-5.559l-28.834,0l-0.044,8.571l25.697,0l0,42.857l-162.858,0l0,-42.857l25.462,0ZM8.571,145.714l0,22.51c0,1.77 1.648,3.205 3.685,3.205l22.03,0l0,-25.715l-25.715,0ZM42.857,145.714l0,25.715l25.714,0l0,-25.715l-25.714,0ZM77.143,145.714l0,25.715l25.714,0l0,-25.715l-25.714,0ZM111.429,145.714l0,25.715l25.714,0l0,-25.715l-25.714,0ZM145.714,145.714l0,25.715l22.03,0c2.035,0 3.685,-1.438 3.685,-3.205l0,-22.51l-25.715,0ZM8.571,111.429l0,25.714l25.715,0l0,-25.714l-25.715,0ZM42.857,111.429l0,25.714l25.714,0l0,-25.714l-25.714,0ZM111.429,111.429l0,25.714l25.714,0l0,-25.714l-25.714,0ZM145.714,111.429l0,25.714l25.715,0l0,-25.714l-25.715,0ZM8.571,77.143l0,25.714l25.715,0l0,-25.714l-25.715,0ZM42.857,77.143l0,25.714l25.714,0l0,-25.714l-25.714,0ZM77.143,77.143l0,25.714l25.714,0l0,-25.714l-25.714,0ZM111.429,77.143l0,25.714l25.714,0l0,-25.714l-25.714,0ZM145.714,77.143l0,25.714l25.715,0l0,-25.714l-25.715,0ZM49.289,0c-3.552,0 -6.432,2.864 -6.432,6.449l0,21.388c0,3.561 2.869,6.449 6.432,6.449l4.279,0c3.552,0 6.432,-2.864 6.432,-6.449l0,-21.388c0,-3.562 -2.869,-6.449 -6.432,-6.449l-4.279,0ZM128.571,0c-4.733,0 -8.571,3.833 -8.571,8.563l0,17.159c0,4.73 3.847,8.564 8.571,8.564c4.734,0 8.572,-3.833 8.572,-8.564l0,-17.159c0,-4.729 -3.847,-8.563 -8.572,-8.563Z" style="fill:#dadada;"/></g></svg>