<?xml version="1.0" standalone="no"?><!DOCTYPE svg PUBLIC "-//W3C//DTD SVG 1.1//EN" "http://www.w3.org/Graphics/SVG/1.1/DTD/svg11.dtd"><svg width="100%" height="100%" viewBox="0 0 38 100" version="1.1" xmlns="http://www.w3.org/2000/svg" xmlns:xlink="http://www.w3.org/1999/xlink" xml:space="preserve" style="fill-rule:evenodd;clip-rule:evenodd;stroke-linejoin:round;stroke-miterlimit:1.41421;"><g><path d="M34.988,100l-33.126,0l-1.862,-95.126c0,0 12.342,-4.874 18.514,-4.874c6.172,0 18.513,4.874 18.513,4.874l-2.039,95.126Z" style="fill:#020202;fill-rule:nonzero;"/><g><path d="M33.378,12.342c0,0.31 -0.252,0.562 -0.562,0.562l-28.605,0c-0.31,0 -0.562,-0.252 -0.562,-0.562l0,-4.849c0,-0.31 0.252,-0.562 0.562,-0.562l28.605,0c0.31,0 0.562,0.252 0.562,0.562l0,4.849Z" style="fill:#121212;fill-rule:nonzero;"/><g><path d="M6.917,8.911c0.105,-0.02 0.22,-0.036 0.347,-0.047c0.126,-0.011 0.252,-0.017 0.376,-0.017c0.131,0 0.261,0.011 0.392,0.032c0.132,0.021 0.25,0.064 0.354,0.127c0.106,0.064 0.191,0.153 0.258,0.267c0.065,0.114 0.099,0.262 0.099,0.445c0,0.165 -0.029,0.304 -0.086,0.418c-0.058,0.114 -0.134,0.207 -0.229,0.28c-0.095,0.073 -0.203,0.125 -0.324,0.158c-0.122,0.032 -0.247,0.048 -0.377,0.048c-0.013,0 -0.033,0 -0.061,0c-0.027,0 -0.056,0 -0.086,-0.002c-0.03,-0.001 -0.059,-0.003 -0.088,-0.005c-0.028,-0.003 -0.049,-0.005 -0.062,-0.008l0,0.904l-0.513,0l0,-2.6l0,0ZM7.682,9.29c-0.051,0 -0.098,0.002 -0.143,0.005c-0.044,0.004 -0.081,0.009 -0.108,0.014l0,0.852c0.009,0.002 0.025,0.005 0.045,0.007c0.019,0.003 0.04,0.005 0.063,0.006c0.023,0.001 0.045,0.002 0.066,0.002c0.021,0 0.037,0 0.047,0c0.067,0 0.134,-0.006 0.201,-0.019c0.066,-0.012 0.125,-0.036 0.178,-0.069c0.052,-0.034 0.094,-0.081 0.125,-0.141c0.031,-0.06 0.047,-0.139 0.047,-0.236c0,-0.083 -0.015,-0.151 -0.045,-0.205c-0.03,-0.053 -0.07,-0.097 -0.118,-0.13c-0.049,-0.032 -0.105,-0.054 -0.167,-0.067c-0.063,-0.013 -0.127,-0.019 -0.191,-0.019Z" style="fill:#636464;fill-rule:nonzero;"/><path d="M9.062,8.911c0.058,-0.01 0.119,-0.02 0.185,-0.028c0.066,-0.009 0.133,-0.016 0.199,-0.021c0.066,-0.005 0.13,-0.009 0.193,-0.011c0.062,-0.003 0.12,-0.004 0.173,-0.004c0.122,0 0.242,0.011 0.361,0.034c0.119,0.022 0.225,0.061 0.319,0.116c0.093,0.055 0.169,0.131 0.225,0.227c0.056,0.097 0.084,0.217 0.084,0.362c0,0.215 -0.05,0.391 -0.15,0.525c-0.099,0.136 -0.233,0.23 -0.401,0.282l0.184,0.116l0.6,1.003l-0.593,0l-0.596,-1.029l-0.269,-0.048l0,1.077l-0.514,0l0,-2.601l0,0ZM9.849,9.305c-0.052,0 -0.104,0.001 -0.156,0.004c-0.051,0.002 -0.09,0.007 -0.117,0.015l0,0.762l0.217,0c0.142,0 0.256,-0.033 0.342,-0.098c0.085,-0.065 0.127,-0.173 0.127,-0.323c0,-0.112 -0.035,-0.2 -0.106,-0.264c-0.069,-0.064 -0.171,-0.096 -0.307,-0.096Z" style="fill:#636464;fill-rule:nonzero;"/><path d="M11.113,10.198c0,-0.438 0.096,-0.775 0.288,-1.011c0.193,-0.237 0.468,-0.355 0.825,-0.355c0.187,0 0.352,0.032 0.491,0.097c0.14,0.066 0.257,0.158 0.349,0.278c0.092,0.12 0.161,0.264 0.206,0.432c0.045,0.168 0.068,0.354 0.068,0.559c0,0.438 -0.097,0.775 -0.291,1.012c-0.194,0.236 -0.468,0.354 -0.823,0.354c-0.19,0 -0.355,-0.032 -0.495,-0.097c-0.14,-0.065 -0.256,-0.158 -0.346,-0.278c-0.092,-0.12 -0.16,-0.264 -0.205,-0.431c-0.045,-0.169 -0.067,-0.354 -0.067,-0.56ZM11.652,10.198c0,0.133 0.011,0.255 0.034,0.366c0.023,0.111 0.058,0.207 0.104,0.287c0.046,0.08 0.105,0.143 0.177,0.188c0.073,0.045 0.159,0.067 0.259,0.067c0.182,0 0.324,-0.071 0.424,-0.213c0.1,-0.143 0.15,-0.374 0.15,-0.695c0,-0.127 -0.011,-0.246 -0.032,-0.356c-0.021,-0.111 -0.054,-0.207 -0.1,-0.289c-0.044,-0.083 -0.103,-0.147 -0.175,-0.194c-0.073,-0.046 -0.161,-0.069 -0.267,-0.069c-0.182,0 -0.324,0.073 -0.423,0.22c-0.101,0.146 -0.151,0.375 -0.151,0.688Z" style="fill:#636464;fill-rule:nonzero;"/><path d="M14.633,10.142l0.978,0l0,1.171c-0.105,0.087 -0.23,0.151 -0.376,0.191c-0.147,0.04 -0.291,0.06 -0.434,0.06c-0.167,0 -0.323,-0.026 -0.466,-0.079c-0.144,-0.052 -0.268,-0.134 -0.374,-0.245c-0.105,-0.112 -0.187,-0.254 -0.247,-0.426c-0.06,-0.173 -0.089,-0.378 -0.089,-0.616c0,-0.248 0.034,-0.458 0.106,-0.632c0.071,-0.174 0.165,-0.315 0.281,-0.425c0.117,-0.108 0.248,-0.187 0.392,-0.236c0.145,-0.049 0.293,-0.073 0.443,-0.073c0.149,0 0.281,0.011 0.395,0.034c0.114,0.022 0.204,0.046 0.272,0.071l-0.105,0.432c-0.063,-0.025 -0.132,-0.045 -0.21,-0.059c-0.078,-0.013 -0.177,-0.02 -0.297,-0.02c-0.107,0 -0.205,0.016 -0.296,0.049c-0.089,0.032 -0.168,0.085 -0.234,0.159c-0.066,0.074 -0.117,0.168 -0.154,0.283c-0.035,0.115 -0.054,0.256 -0.054,0.421c0,0.157 0.018,0.294 0.053,0.407c0.035,0.114 0.084,0.208 0.146,0.281c0.062,0.074 0.136,0.129 0.22,0.164c0.083,0.035 0.173,0.052 0.267,0.052c0.066,0 0.13,-0.008 0.192,-0.024c0.062,-0.016 0.114,-0.041 0.157,-0.073l0,-0.496l-0.566,-0.06l0,-0.311l0,0Z" style="fill:#636464;fill-rule:nonzero;"/><path d="M15.99,8.911c0.058,-0.01 0.119,-0.02 0.186,-0.028c0.066,-0.009 0.133,-0.016 0.199,-0.021c0.065,-0.005 0.13,-0.009 0.193,-0.011c0.062,-0.003 0.12,-0.004 0.172,-0.004c0.122,0 0.243,0.011 0.362,0.034c0.118,0.022 0.225,0.061 0.318,0.116c0.094,0.055 0.169,0.131 0.226,0.227c0.055,0.097 0.084,0.217 0.084,0.362c0,0.215 -0.05,0.391 -0.15,0.525c-0.1,0.136 -0.234,0.23 -0.401,0.282l0.183,0.116l0.6,1.003l-0.593,0l-0.596,-1.029l-0.269,-0.048l0,1.077l-0.514,0l0,-2.601l0,0ZM16.777,9.305c-0.052,0 -0.104,0.001 -0.155,0.004c-0.051,0.002 -0.091,0.007 -0.118,0.015l0,0.762l0.218,0c0.142,0 0.255,-0.033 0.341,-0.098c0.085,-0.065 0.127,-0.173 0.127,-0.323c0,-0.112 -0.035,-0.2 -0.106,-0.264c-0.069,-0.064 -0.171,-0.096 -0.307,-0.096Z" style="fill:#636464;fill-rule:nonzero;"/><path d="M19.402,10.93l-0.806,0l-0.199,0.582l-0.513,0l0.944,-2.646l0.379,0l0.946,2.646l-0.541,0l-0.21,-0.582ZM18.727,10.517l0.563,0l-0.195,-0.585l-0.079,-0.413l-0.018,0l-0.08,0.416l-0.191,0.582Z" style="fill:#636464;fill-rule:nonzero;"/><path d="M22.413,10.15l0.056,-0.522l-0.022,0l-0.161,0.42l-0.56,0.98l-0.164,0l-0.589,-0.984l-0.164,-0.416l-0.02,0l0.075,0.518l0,1.366l-0.487,0l0,-2.627l0.469,0l0.702,1.201l0.123,0.3l0.015,0l0.112,-0.308l0.664,-1.194l0.465,0l0,2.628l-0.514,0l0,-1.362l0,0Z" style="fill:#636464;fill-rule:nonzero;"/><path d="M24.325,8.911c0.105,-0.02 0.22,-0.036 0.347,-0.047c0.126,-0.011 0.252,-0.017 0.377,-0.017c0.13,0 0.26,0.011 0.391,0.032c0.132,0.021 0.25,0.064 0.355,0.127c0.105,0.064 0.19,0.153 0.256,0.267c0.067,0.114 0.1,0.262 0.1,0.445c0,0.165 -0.029,0.304 -0.086,0.418c-0.058,0.114 -0.134,0.207 -0.229,0.28c-0.095,0.073 -0.203,0.125 -0.324,0.158c-0.122,0.032 -0.246,0.048 -0.377,0.048c-0.013,0 -0.032,0 -0.061,0c-0.026,0 -0.055,0 -0.085,-0.002c-0.031,-0.001 -0.06,-0.003 -0.088,-0.005c-0.029,-0.003 -0.05,-0.005 -0.062,-0.008l0,0.904l-0.514,0l0,-2.6l0,0ZM25.09,9.29c-0.05,0 -0.097,0.002 -0.143,0.005c-0.044,0.004 -0.081,0.009 -0.108,0.014l0,0.852c0.01,0.002 0.025,0.005 0.045,0.007c0.02,0.003 0.041,0.005 0.063,0.006c0.023,0.001 0.045,0.002 0.066,0.002c0.022,0 0.037,0 0.047,0c0.067,0 0.134,-0.006 0.201,-0.019c0.066,-0.012 0.125,-0.036 0.178,-0.069c0.053,-0.034 0.095,-0.081 0.125,-0.141c0.032,-0.06 0.047,-0.139 0.047,-0.236c0,-0.083 -0.014,-0.151 -0.045,-0.205c-0.03,-0.053 -0.069,-0.097 -0.117,-0.13c-0.05,-0.032 -0.106,-0.054 -0.167,-0.067c-0.063,-0.013 -0.127,-0.019 -0.192,-0.019Z" style="fill:#636464;fill-rule:nonzero;"/><path d="M27.474,10.93l-0.806,0l-0.199,0.582l-0.513,0l0.945,-2.646l0.378,0l0.945,2.646l-0.54,0l-0.21,-0.582ZM26.799,10.517l0.563,0l-0.195,-0.585l-0.079,-0.413l-0.019,0l-0.079,0.416l-0.191,0.582Z" style="fill:#636464;fill-rule:nonzero;"/><path d="M30.11,11.512l-1.661,0l0,-2.627l0.514,0l0,2.169l1.147,0l0,0.458Z" style="fill:#636464;fill-rule:nonzero;"/></g></g><g><path d="M28.233,29.016c0,5.373 -4.352,9.729 -9.72,9.729c-5.368,0 -9.719,-4.356 -9.719,-9.729c0,-5.372 4.351,-9.728 9.719,-9.728c5.368,0 9.72,4.356 9.72,9.728Z" style="fill:#b0afb0;fill-rule:nonzero;"/><path d="M25.118,29.016c0,3.651 -2.957,6.611 -6.605,6.611c-3.647,0 -6.604,-2.96 -6.604,-6.611c0,-3.65 2.957,-6.61 6.604,-6.61c3.648,0 6.605,2.96 6.605,6.61Z" style="fill:#a5a4a4;fill-rule:nonzero;"/><path d="M16.362,25.485c0.7,0 6.11,2.978 6.11,3.532c0,0.554 -5.536,3.531 -6.11,3.531c-0.574,0 -0.7,-7.063 0,-7.063Z" style="fill:#6d6d6d;fill-rule:nonzero;"/></g><g><path d="M13.958,89.829c0,0.72 -0.583,1.303 -1.302,1.303l-3.938,0c-0.719,0 -1.301,-0.583 -1.301,-1.303c0,-0.719 0.582,-1.302 1.301,-1.302l3.938,0c0.719,0 1.302,0.583 1.302,1.302Z" style="fill:#b0afb0;fill-rule:nonzero;"/><path d="M21.783,89.829c0,0.72 -0.582,1.303 -1.301,1.303l-3.938,0c-0.718,0 -1.301,-0.583 -1.301,-1.303c0,-0.719 0.583,-1.302 1.301,-1.302l3.938,0c0.719,0 1.301,0.583 1.301,1.302Z" style="fill:#e82425;fill-rule:nonzero;"/><path d="M29.61,89.829c0,0.72 -0.582,1.303 -1.301,1.303l-3.938,0c-0.719,0 -1.301,-0.583 -1.301,-1.303c0,-0.719 0.582,-1.302 1.301,-1.302l3.938,0c0.719,0 1.301,0.583 1.301,1.302Z" style="fill:#b0afb0;fill-rule:nonzero;"/></g><g><path d="M31.776,76.88c0,1.649 -1.335,2.986 -2.984,2.986l-20.556,0c-1.649,0 -2.985,-1.337 -2.985,-2.986l0,-28.612c0,-1.649 1.336,-2.987 2.985,-2.987l20.556,0c1.649,0 2.984,1.337 2.984,2.987l0,28.612Z" style="fill:#121212;fill-rule:nonzero;"/><path d="M13.764,52.949c0,0.592 -0.48,1.071 -1.072,1.071l-3.586,0c-0.592,0 -1.071,-0.479 -1.071,-1.071l0,-4.037c0,-0.593 0.479,-1.072 1.071,-1.072l3.586,0c0.592,0 1.072,0.479 1.072,1.072l0,4.037l0,0Z" style="fill:#b0afb0;fill-rule:nonzero;"/><path d="M21.292,52.948c0,0.593 -0.48,1.072 -1.071,1.072l-3.587,0c-0.591,0 -1.07,-0.479 -1.07,-1.072l0,-4.036c0,-0.593 0.479,-1.072 1.07,-1.072l3.587,0c0.591,0 1.071,0.479 1.071,1.072l0,4.036Z" style="fill:#b0afb0;fill-rule:nonzero;"/><path d="M28.821,52.948c0,0.593 -0.481,1.072 -1.071,1.072l-3.586,0c-0.592,0 -1.072,-0.479 -1.072,-1.072l0,-4.036c0,-0.593 0.48,-1.072 1.072,-1.072l3.586,0c0.59,0 1.071,0.479 1.071,1.072l0,4.036l0,0Z" style="fill:#b0afb0;fill-rule:nonzero;"/><path d="M13.764,60.85c0,0.592 -0.48,1.073 -1.072,1.073l-3.586,0c-0.592,0 -1.071,-0.481 -1.071,-1.073l0,-4.036c0,-0.593 0.479,-1.073 1.071,-1.073l3.586,0c0.592,0 1.072,0.48 1.072,1.073l0,4.036l0,0Z" style="fill:#b0afb0;fill-rule:nonzero;"/><path d="M21.292,60.849c0,0.593 -0.48,1.073 -1.071,1.073l-3.587,0c-0.591,0 -1.07,-0.48 -1.07,-1.073l0,-4.035c0,-0.593 0.479,-1.073 1.07,-1.073l3.587,0c0.591,0 1.071,0.48 1.071,1.073l0,4.035Z" style="fill:#b0afb0;fill-rule:nonzero;"/><path d="M28.821,60.849c0,0.593 -0.48,1.073 -1.071,1.073l-3.586,0c-0.592,0 -1.072,-0.48 -1.072,-1.073l0,-4.035c0,-0.593 0.48,-1.073 1.072,-1.073l3.586,0c0.591,0 1.071,0.48 1.071,1.073l0,4.035Z" style="fill:#b0afb0;fill-rule:nonzero;"/><path d="M13.764,68.736c0,0.592 -0.48,1.071 -1.072,1.071l-3.586,0c-0.592,0 -1.071,-0.479 -1.071,-1.071l0,-4.037c0,-0.593 0.479,-1.073 1.071,-1.073l3.586,0c0.592,0 1.072,0.48 1.072,1.073l0,4.037l0,0Z" style="fill:#b0afb0;fill-rule:nonzero;"/><path d="M21.292,68.736c0,0.592 -0.48,1.071 -1.071,1.071l-3.587,0c-0.591,0 -1.07,-0.479 -1.07,-1.071l0,-4.037c0,-0.593 0.479,-1.073 1.07,-1.073l3.587,0c0.591,0 1.071,0.48 1.071,1.073l0,4.037Z" style="fill:#b0afb0;fill-rule:nonzero;"/><path d="M21.234,76.628c0,0.592 -0.481,1.072 -1.073,1.072l-3.585,0c-0.592,0 -1.071,-0.48 -1.071,-1.072l0,-4.036c0,-0.592 0.479,-1.072 1.071,-1.072l3.585,0c0.592,0 1.073,0.48 1.073,1.072l0,4.036Z" style="fill:#b0afb0;fill-rule:nonzero;"/><path d="M28.821,68.736c0,0.592 -0.481,1.071 -1.071,1.071l-3.586,0c-0.592,0 -1.072,-0.479 -1.072,-1.071l0,-4.037c0,-0.593 0.48,-1.073 1.072,-1.073l3.586,0c0.59,0 1.071,0.48 1.071,1.073l0,4.037l0,0Z" style="fill:#b0afb0;fill-rule:nonzero;"/></g></g></svg>